/* XPM */
static char * dial_xpm[] = {
"20 20 165 2",
"  	c None",
". 	c #FCFEFD",
"+ 	c #BABDD6",
"@ 	c #6A528E",
"# 	c #3F3060",
"$ 	c #432C5C",
"% 	c #4D315F",
"& 	c #473769",
"* 	c #715D93",
"= 	c #CBCEE5",
"- 	c #B7AECA",
"; 	c #583573",
"> 	c #572754",
", 	c #5C2B63",
"' 	c #6C3D75",
") 	c #75447E",
"! 	c #74497D",
"~ 	c #5B4375",
"{ 	c #C2C2DE",
"] 	c #776A9E",
"^ 	c #5B2F63",
"/ 	c #8C5F9F",
"( 	c #936BA3",
"_ 	c #916FA1",
": 	c #957FA9",
"< 	c #9F84AC",
"[ 	c #A081AD",
"} 	c #987BA5",
"| 	c #86588E",
"1 	c #683865",
"2 	c #8184AF",
"3 	c #6A659B",
"4 	c #8F5797",
"5 	c #825B95",
"6 	c #815D93",
"7 	c #88669A",
"8 	c #8B639D",
"9 	c #8F729E",
"0 	c #845797",
"a 	c #968EB2",
"b 	c #86538F",
"c 	c #78568A",
"d 	c #724B8D",
"e 	c #664682",
"f 	c #734B85",
"g 	c #7B538D",
"h 	c #DBE0ED",
"i 	c #513B75",
"j 	c #723471",
"k 	c #805D9B",
"l 	c #744886",
"m 	c #63387E",
"n 	c #593175",
"o 	c #622D7D",
"p 	c #58317D",
"q 	c #684385",
"r 	c #6C3975",
"s 	c #79659B",
"t 	c #4E1C4A",
"u 	c #A78DB3",
"v 	c #AD97B9",
"w 	c #987DAB",
"x 	c #733A7C",
"y 	c #753D7E",
"z 	c #60258D",
"A 	c #613086",
"B 	c #7C4B8F",
"C 	c #DBDBED",
"D 	c #775D89",
"E 	c #512559",
"F 	c #8F74A4",
"G 	c #BEA4C2",
"H 	c #C5AED0",
"I 	c #A78EBA",
"J 	c #75417F",
"K 	c #715975",
"L 	c #744C76",
"M 	c #763B7F",
"N 	c #712F9F",
"O 	c #652FA7",
"P 	c #603886",
"Q 	c #9D97C1",
"R 	c #64326C",
"S 	c #7C4F8F",
"T 	c #AE92B4",
"U 	c #83579F",
"V 	c #692C86",
"W 	c #774183",
"X 	c #71597C",
"Y 	c #735978",
"Z 	c #765870",
"` 	c #795070",
" .	c #79417E",
"..	c #8149B1",
"+.	c #773DB9",
"@.	c #623C7C",
"#.	c #45295F",
"$.	c #664979",
"%.	c #755890",
"&.	c #72308E",
"*.	c #774283",
"=.	c #6B7A9F",
"-.	c #63A5B4",
";.	c #55F0DA",
">.	c #5491AF",
",.	c #3D1E58",
"'.	c #502E62",
").	c #6A407E",
"!.	c #704D83",
"~.	c #6D5088",
"{.	c #63A5B5",
"].	c #5291AD",
"^.	c #422878",
"/.	c #604D83",
"(.	c #623C74",
"_.	c #5E3E7A",
":.	c #693C86",
"<.	c #693086",
"[.	c #774383",
"}.	c #73597F",
"|.	c #725976",
"1.	c #775177",
"2.	c #7D4784",
"3.	c #B392E4",
"4.	c #7A4EA0",
"5.	c #5E3E82",
"6.	c #643A6C",
"7.	c #7E6098",
"8.	c #704D8B",
"9.	c #603B85",
"0.	c #70597A",
"a.	c #754B82",
"b.	c #82709A",
"c.	c #A87AC8",
"d.	c #BB96E4",
"e.	c #C0A8DE",
"f.	c #B6A2CE",
"g.	c #BDA8C8",
"h.	c #9977A7",
"i.	c #8D76A2",
"j.	c #8867A1",
"k.	c #785593",
"l.	c #6A437D",
"m.	c #954AB8",
"n.	c #A172B4",
"o.	c #A186BA",
"p.	c #AF97C1",
"q.	c #9E86B2",
"r.	c #DACDE3",
"s.	c #977EAA",
"t.	c #7B4A98",
"u.	c #755898",
"v.	c #9C89B7",
"w.	c #A491B7",
"x.	c #5C3363",
"y.	c #9E86AA",
"z.	c #66458B",
"A.	c #8D78A8",
"B.	c #563771",
"C.	c #B3A3C5",
"D.	c #D3BFD7",
"E.	c #67467A",
"F.	c #5D4177",
"G.	c #D2C3DD",
"H.	c #E0D6EA",
". . . . . . + @ # $ % & * = . . . . . . ",
". . . . - ; > , ' ) ! ) ' ' ~ { . . . . ",
". . . ] ^ ) / ( ( _ : < [ } | 1 2 . . . ",
". . 3 , 4 / 5 6 6 7 8 8 7 ( 9 0 ' a . . ",
". { , b 5 0 5 0 c d e e f g g g ! f h . ",
". i j 0 / 7 _ k l m n o p m q q q r s . ",
"= t f 0 _ u v w 0 o x y z z A m m ; B C ",
"D E d c F G H I / o J K L M N O P P ^ Q ",
"& R f S 7 T T w U V W X Y Z `  ...+.P @.",
"#.' $.f %.8 k U l &.*.=.-.;.;.;.;.;.>.,.",
"'.).!.!.~.S f e q &.W =.{.;.;.;.;.;.].^.",
"/.(.6 g ~.f _._.:.<.[.X }.|.1.2.I 3.4.5.",
"i 6.F 7.5 8.5.).9.<.[.0.a.b.c.d.e.f.q * ",
"g.'.h.i.j.k.q l._.:.$.~.m.n.o.p.f.q.; r.",
". #.!.u s.7 8.e q q ) t.u.j.w v.w./.5.. ",
". g.x.( v y.6 d e e z.8.k.k j.A.k.; r.. ",
". . 6 B.: C.u k S l f z.8.k.u.8.B.h.. . ",
". . . 5 ! < f.y.k ~.z.f 8.z.l._.F . . . ",
". . . . D.E.8 7.6 !.e l.F.l.$.G.. . . . ",
". . . . . . G.6 E.l.E.E.7.H.. . . . . . "};
